<?xml version="1.0" encoding="UTF-8"?>
<!DOCTYPE svg PUBLIC "-//W3C//DTD SVG 1.1//EN" "http://www.w3.org/Graphics/SVG/1.1/DTD/svg11.dtd">
<svg xmlns="http://www.w3.org/2000/svg" version="1.1" width="1080px" height="1080px"
     style="shape-rendering:geometricPrecision; text-rendering:geometricPrecision; image-rendering:optimizeQuality; fill-rule:evenodd; clip-rule:evenodd"
>
    <g>
        <path style="opacity:1" fill="none"
              d="M -0.5,-0.5 C 40.1667,-0.5 80.8333,-0.5 121.5,-0.5C 126.172,17.1754 134.339,33.1754 146,47.5C 162.607,66.4417 180.274,84.4417 199,101.5C 213.021,116.859 219.688,134.859 219,155.5C 217.436,159.202 216.103,162.868 215,166.5C 225.711,176.05 236.544,185.383 247.5,194.5C 246.21,195.408 244.877,195.241 243.5,194C 227.572,185.065 211.905,175.731 196.5,166C 186.568,156.404 177.735,145.904 170,134.5C 160.712,116.259 151.712,97.9252 143,79.5C 136.43,66.5865 127.263,55.7532 115.5,47C 110.589,44.6859 105.589,43.5193 100.5,43.5C 110.339,52.1688 118.506,62.1688 125,73.5C 135.566,95.7344 145.233,118.401 154,141.5C 163.478,161.983 177.312,178.816 195.5,192C 216.324,202.578 236.991,213.412 257.5,224.5C 256.833,224.833 256.167,225.167 255.5,225.5C 246.816,222.497 238.149,219.497 229.5,216.5C 229.167,216.833 228.833,217.167 228.5,217.5C 240.837,229.67 252.837,242.17 264.5,255C 285.326,272.905 307.66,288.571 331.5,302C 370.262,323.311 409.929,342.811 450.5,360.5C 451.631,362.074 451.798,363.741 451,365.5C 447.846,369.617 445.846,374.283 445,379.5C 443.951,380.517 442.784,380.684 441.5,380C 431.471,364.32 418.138,352.32 401.5,344C 385.711,337.914 369.711,332.58 353.5,328C 347.725,324.561 341.725,321.561 335.5,319C 328.093,317.058 325.427,319.891 327.5,327.5C 327.671,332.864 328.171,338.198 329,343.5C 340.589,378.085 362.089,404.585 393.5,423C 399.612,425.147 405.612,427.48 411.5,430C 414.834,430.781 418.167,431.114 421.5,431C 397.219,420.703 377.052,405.203 361,384.5C 359.333,380.833 357.667,377.167 356,373.5C 355.192,371.421 355.359,369.421 356.5,367.5C 368.105,393.629 388.105,407.962 416.5,410.5C 424.437,410.962 431.771,409.295 438.5,405.5C 436.787,417.561 435.121,429.728 433.5,442C 433.447,447.263 434.113,452.429 435.5,457.5C 438.665,464.84 442.498,471.84 447,478.5C 457.235,488.737 465.068,500.57 470.5,514C 470.389,515.722 469.889,515.888 469,514.5C 461.411,501.92 452.078,490.92 441,481.5C 438.763,484.298 436.763,487.298 435,490.5C 432.569,498.913 429.236,506.913 425,514.5C 420.954,525.572 418.121,536.905 416.5,548.5C 415.339,563.995 415.172,579.661 416,595.5C 416.443,601.367 417.276,607.034 418.5,612.5C 420.582,629.691 425.416,646.024 433,661.5C 427.08,634.915 427.08,608.248 433,581.5C 434.187,577.737 435.52,574.07 437,570.5C 437.718,569.549 438.551,569.383 439.5,570C 449.08,599.291 464.746,625.124 486.5,647.5C 478.748,646.776 472.414,643.109 467.5,636.5C 467.167,637 466.833,637.5 466.5,638C 483.554,668.296 507.388,691.796 538,708.5C 561.752,695.409 581.752,678.076 598,656.5C 601.53,650.811 604.364,644.811 606.5,638.5C 606.167,637.833 605.833,637.167 605.5,636.5C 600.036,640.807 594.202,644.473 588,647.5C 587.5,647.167 587,646.833 586.5,646.5C 603.436,628.067 616.936,607.4 627,584.5C 630.462,574.049 633.128,563.382 635,552.5C 635.667,553.167 636.333,553.833 637,554.5C 645.424,590.435 645.591,626.435 637.5,662.5C 637.482,664.373 637.982,664.706 639,663.5C 652.955,640.927 659.121,616.26 657.5,589.5C 657.876,569.75 654.376,550.75 647,532.5C 638.948,514.843 631.115,497.01 623.5,479C 621.255,479.195 619.422,480.362 618,482.5C 608.265,494.635 600.599,507.968 595,522.5C 595.624,507.299 600.624,493.632 610,481.5C 632.34,460.337 639.507,434.67 631.5,404.5C 631.833,403.167 632.167,401.833 632.5,400.5C 635.608,403.867 638.608,407.367 641.5,411C 643.034,411.923 644.701,412.423 646.5,412.5C 673.098,409.015 692.098,395.015 703.5,370.5C 704.206,372.766 704.039,375.099 703,377.5C 701.037,381.088 699.37,384.755 698,388.5C 689.049,400.116 678.215,409.616 665.5,417C 659.5,421.333 653.5,425.667 647.5,430C 648.833,430.667 650.167,430.667 651.5,430C 661.5,424.667 671.5,419.333 681.5,414C 690.946,407.221 699.779,399.721 708,391.5C 725.498,371.576 734.832,348.243 736,321.5C 731.909,317.695 727.076,316.528 721.5,318C 712.688,320.938 704.021,324.271 695.5,328C 670.365,333.07 648.032,343.736 628.5,360C 624.275,363.722 620.608,367.888 617.5,372.5C 616.675,373.386 615.675,373.719 614.5,373.5C 614.053,369.213 613.053,365.047 611.5,361C 611.645,360.228 611.978,359.561 612.5,359C 657.357,339.071 701.024,316.738 743.5,292C 770.961,276.54 794.795,256.707 815,232.5C 820.872,226.973 826.205,221.307 831,215.5C 821.745,218.983 812.412,222.316 803,225.5C 801.278,225.389 801.112,224.889 802.5,224C 822.35,212.574 842.683,201.907 863.5,192C 878.535,181.106 890.701,167.606 900,151.5C 910.67,126.818 921.337,102.151 932,77.5C 938.774,64.4681 947.608,52.9681 958.5,43C 953.765,43.3479 949.099,44.3479 944.5,46C 933.154,54.6739 923.987,65.1739 917,77.5C 907.875,97.0833 898.208,116.417 888,135.5C 879.39,149.941 868.224,161.941 854.5,171.5C 840.863,178.651 827.53,186.318 814.5,194.5C 813.391,195.59 812.391,195.59 811.5,194.5C 822.456,185.383 833.289,176.05 844,166.5C 843.279,163.377 841.946,160.377 840,157.5C 839.32,136.223 845.987,117.557 860,101.5C 874.817,87.4047 889.484,73.0714 904,58.5C 916.849,44.1383 927.182,28.1383 935,10.5C 935.407,6.71484 936.241,3.04817 937.5,-0.5C 984.833,-0.5 1032.17,-0.5 1079.5,-0.5C 1079.5,353.833 1079.5,708.167 1079.5,1062.5C 719.5,1062.5 359.5,1062.5 -0.5,1062.5C -0.5,708.167 -0.5,353.833 -0.5,-0.5 Z"/>
    </g>
    <g>
        <path style="opacity:1" fill="#888888"
              d="M 121.5,-0.5 C 125.5,-0.5 129.5,-0.5 133.5,-0.5C 145.339,23.2829 162.672,42.1162 185.5,56C 202.066,68.9005 216.233,84.0672 228,101.5C 228.325,99.4473 227.991,97.4473 227,95.5C 214.368,75.2454 200.035,56.2454 184,38.5C 174.77,27.2453 170.603,14.2453 171.5,-0.5C 177.5,-0.5 183.5,-0.5 189.5,-0.5C 191.564,11.2904 195.064,22.6237 200,33.5C 203.354,38.2074 206.187,43.2074 208.5,48.5C 210.843,51.2072 213.177,53.8739 215.5,56.5C 217.069,55.286 217.902,53.6193 218,51.5C 218.585,46.489 219.251,41.489 220,36.5C 222.526,26.0702 225.526,15.7369 229,5.5C 229.495,3.5273 229.662,1.5273 229.5,-0.5C 233.833,-0.5 238.167,-0.5 242.5,-0.5C 239.556,32.8743 240.056,66.2077 244,99.5C 251.001,134.16 261.001,167.827 274,200.5C 281.511,218.673 291.511,235.34 304,250.5C 310.342,258.502 318.509,263.668 328.5,266C 337.343,281.833 348.676,295.5 362.5,307C 365.465,309.49 368.798,310.824 372.5,311C 342.994,286.095 326.494,254.262 323,215.5C 321.754,202.196 321.254,188.863 321.5,175.5C 322.5,175.5 323.5,175.5 324.5,175.5C 326.539,206.705 335.039,236.039 350,263.5C 360.044,282.873 375.544,295.707 396.5,302C 406.145,304.092 415.812,306.092 425.5,308C 429.707,316.252 434.54,324.085 440,331.5C 444.667,334.987 449.5,338.321 454.5,341.5C 455.521,340.998 455.688,340.332 455,339.5C 451.694,336.194 448.36,332.86 445,329.5C 419.733,293.292 411.4,253.292 420,209.5C 421.234,200.129 424.234,191.463 429,183.5C 419.228,237.6 432.395,285.1 468.5,326C 473.476,330.487 478.809,334.487 484.5,338C 491.482,337.669 498.482,337.669 505.5,338C 511.347,340.128 517.347,341.628 523.5,342.5C 532.467,339.457 541.633,337.124 551,335.5C 557.534,335.94 563.868,337.273 570,339.5C 593.953,322.309 612.286,300.309 625,273.5C 627.411,264.947 629.244,256.28 630.5,247.5C 631.302,246.048 631.802,244.382 632,242.5C 632.825,231.992 632.659,221.658 631.5,211.5C 631.564,206.807 631.231,202.141 630.5,197.5C 627.898,189.661 626.398,181.661 626,173.5C 626.667,174.167 627.333,174.833 628,175.5C 649.017,216.954 651.017,259.287 634,302.5C 626.121,314.549 617.288,325.882 607.5,336.5C 607.833,336.833 608.167,337.167 608.5,337.5C 615.833,332.5 623.167,327.5 630.5,322.5C 634.515,318.315 638.182,313.815 641.5,309C 667.585,304.857 688.752,292.357 705,271.5C 712.02,261.499 717.687,250.832 722,239.5C 725.335,227.494 728.668,215.494 732,203.5C 733.494,194.206 734.66,184.872 735.5,175.5C 739.431,202.741 736.598,229.408 727,255.5C 721.922,265.99 716.589,276.323 711,286.5C 703.343,295.657 694.843,303.99 685.5,311.5C 686,311.833 686.5,312.167 687,312.5C 695.852,307.323 703.852,300.99 711,293.5C 717.252,285.976 723.252,278.309 729,270.5C 730.009,268.975 730.509,267.308 730.5,265.5C 741.921,262.279 751.421,255.946 759,246.5C 768.019,233.797 776.019,220.464 783,206.5C 789.417,191.205 795.084,175.538 800,159.5C 808.019,134.731 813.686,109.398 817,83.5C 819.132,55.4489 818.965,27.4489 816.5,-0.5C 820.833,-0.5 825.167,-0.5 829.5,-0.5C 833.988,18.0622 838.154,36.7288 842,55.5C 844.091,56.4996 845.757,55.8329 847,53.5C 858.628,37.2411 866.128,19.2411 869.5,-0.5C 875.5,-0.5 881.5,-0.5 887.5,-0.5C 887.465,7.57813 886.632,15.5781 885,23.5C 875.417,38.0744 864.751,51.741 853,64.5C 846.421,73.3248 840.087,82.3248 834,91.5C 832.745,94.9157 831.745,98.249 831,101.5C 847.913,76.9214 869.08,56.7548 894.5,41C 907.419,28.9477 917.753,15.1144 925.5,-0.5C 929.5,-0.5 933.5,-0.5 937.5,-0.5C 936.241,3.04817 935.407,6.71484 935,10.5C 927.182,28.1383 916.849,44.1383 904,58.5C 889.484,73.0714 874.817,87.4047 860,101.5C 845.987,117.557 839.32,136.223 840,157.5C 841.946,160.377 843.279,163.377 844,166.5C 833.289,176.05 822.456,185.383 811.5,194.5C 812.391,195.59 813.391,195.59 814.5,194.5C 827.53,186.318 840.863,178.651 854.5,171.5C 868.224,161.941 879.39,149.941 888,135.5C 898.208,116.417 907.875,97.0833 917,77.5C 923.987,65.1739 933.154,54.6739 944.5,46C 949.099,44.3479 953.765,43.3479 958.5,43C 947.608,52.9681 938.774,64.4681 932,77.5C 921.337,102.151 910.67,126.818 900,151.5C 890.701,167.606 878.535,181.106 863.5,192C 842.683,201.907 822.35,212.574 802.5,224C 801.112,224.889 801.278,225.389 803,225.5C 812.412,222.316 821.745,218.983 831,215.5C 826.205,221.307 820.872,226.973 815,232.5C 794.795,256.707 770.961,276.54 743.5,292C 701.024,316.738 657.357,339.071 612.5,359C 611.978,359.561 611.645,360.228 611.5,361C 613.053,365.047 614.053,369.213 614.5,373.5C 615.675,373.719 616.675,373.386 617.5,372.5C 620.608,367.888 624.275,363.722 628.5,360C 648.032,343.736 670.365,333.07 695.5,328C 704.021,324.271 712.688,320.938 721.5,318C 727.076,316.528 731.909,317.695 736,321.5C 734.832,348.243 725.498,371.576 708,391.5C 699.779,399.721 690.946,407.221 681.5,414C 671.5,419.333 661.5,424.667 651.5,430C 650.167,430.667 648.833,430.667 647.5,430C 653.5,425.667 659.5,421.333 665.5,417C 678.215,409.616 689.049,400.116 698,388.5C 699.37,384.755 701.037,381.088 703,377.5C 704.039,375.099 704.206,372.766 703.5,370.5C 692.098,395.015 673.098,409.015 646.5,412.5C 644.701,412.423 643.034,411.923 641.5,411C 638.608,407.367 635.608,403.867 632.5,400.5C 632.167,401.833 631.833,403.167 631.5,404.5C 639.507,434.67 632.34,460.337 610,481.5C 600.624,493.632 595.624,507.299 595,522.5C 600.599,507.968 608.265,494.635 618,482.5C 619.422,480.362 621.255,479.195 623.5,479C 631.115,497.01 638.948,514.843 647,532.5C 654.376,550.75 657.876,569.75 657.5,589.5C 659.121,616.26 652.955,640.927 639,663.5C 637.982,664.706 637.482,664.373 637.5,662.5C 645.591,626.435 645.424,590.435 637,554.5C 636.333,553.833 635.667,553.167 635,552.5C 633.128,563.382 630.462,574.049 627,584.5C 616.936,607.4 603.436,628.067 586.5,646.5C 587,646.833 587.5,647.167 588,647.5C 594.202,644.473 600.036,640.807 605.5,636.5C 605.833,637.167 606.167,637.833 606.5,638.5C 604.364,644.811 601.53,650.811 598,656.5C 581.752,678.076 561.752,695.409 538,708.5C 507.388,691.796 483.554,668.296 466.5,638C 466.833,637.5 467.167,637 467.5,636.5C 472.414,643.109 478.748,646.776 486.5,647.5C 464.746,625.124 449.08,599.291 439.5,570C 438.551,569.383 437.718,569.549 437,570.5C 435.52,574.07 434.187,577.737 433,581.5C 427.08,608.248 427.08,634.915 433,661.5C 425.416,646.024 420.582,629.691 418.5,612.5C 416.762,591.212 416.095,569.878 416.5,548.5C 418.121,536.905 420.954,525.572 425,514.5C 429.236,506.913 432.569,498.913 435,490.5C 436.763,487.298 438.763,484.298 441,481.5C 452.078,490.92 461.411,501.92 469,514.5C 469.889,515.888 470.389,515.722 470.5,514C 465.068,500.57 457.235,488.737 447,478.5C 442.498,471.84 438.665,464.84 435.5,457.5C 434.113,452.429 433.447,447.263 433.5,442C 435.121,429.728 436.787,417.561 438.5,405.5C 431.771,409.295 424.437,410.962 416.5,410.5C 388.105,407.962 368.105,393.629 356.5,367.5C 355.359,369.421 355.192,371.421 356,373.5C 357.667,377.167 359.333,380.833 361,384.5C 377.052,405.203 397.219,420.703 421.5,431C 418.167,431.114 414.834,430.781 411.5,430C 405.612,427.48 399.612,425.147 393.5,423C 362.089,404.585 340.589,378.085 329,343.5C 328.171,338.198 327.671,332.864 327.5,327.5C 325.427,319.891 328.093,317.058 335.5,319C 341.725,321.561 347.725,324.561 353.5,328C 369.711,332.58 385.711,337.914 401.5,344C 418.138,352.32 431.471,364.32 441.5,380C 442.784,380.684 443.951,380.517 445,379.5C 445.846,374.283 447.846,369.617 451,365.5C 451.798,363.741 451.631,362.074 450.5,360.5C 409.929,342.811 370.262,323.311 331.5,302C 307.66,288.571 285.326,272.905 264.5,255C 252.837,242.17 240.837,229.67 228.5,217.5C 228.833,217.167 229.167,216.833 229.5,216.5C 238.149,219.497 246.816,222.497 255.5,225.5C 256.167,225.167 256.833,224.833 257.5,224.5C 236.991,213.412 216.324,202.578 195.5,192C 177.312,178.816 163.478,161.983 154,141.5C 145.233,118.401 135.566,95.7344 125,73.5C 118.506,62.1688 110.339,52.1688 100.5,43.5C 105.589,43.5193 110.589,44.6859 115.5,47C 127.263,55.7532 136.43,66.5865 143,79.5C 151.712,97.9252 160.712,116.259 170,134.5C 177.735,145.904 186.568,156.404 196.5,166C 211.905,175.731 227.572,185.065 243.5,194C 244.877,195.241 246.21,195.408 247.5,194.5C 236.544,185.383 225.711,176.05 215,166.5C 216.103,162.868 217.436,159.202 219,155.5C 219.688,134.859 213.021,116.859 199,101.5C 180.274,84.4417 162.607,66.4417 146,47.5C 134.339,33.1754 126.172,17.1754 121.5,-0.5 Z"/>
    </g>
    <g>
        <path style="opacity:1" fill="none"
              d="M 887.5,-0.5 C 900.167,-0.5 912.833,-0.5 925.5,-0.5C 917.753,15.1144 907.419,28.9477 894.5,41C 869.08,56.7548 847.913,76.9214 831,101.5C 831.745,98.249 832.745,94.9157 834,91.5C 840.087,82.3248 846.421,73.3248 853,64.5C 864.751,51.741 875.417,38.0744 885,23.5C 886.632,15.5781 887.465,7.57813 887.5,-0.5 Z"/>
    </g>
    <g>
        <path style="opacity:1" fill="none"
              d="M 829.5,-0.5 C 842.833,-0.5 856.167,-0.5 869.5,-0.5C 866.128,19.2411 858.628,37.2411 847,53.5C 845.757,55.8329 844.091,56.4996 842,55.5C 838.154,36.7288 833.988,18.0622 829.5,-0.5 Z"/>
    </g>
    <g>
        <path style="opacity:1" fill="none"
              d="M 242.5,-0.5 C 433.833,-0.5 625.167,-0.5 816.5,-0.5C 818.965,27.4489 819.132,55.4489 817,83.5C 813.686,109.398 808.019,134.731 800,159.5C 795.084,175.538 789.417,191.205 783,206.5C 776.019,220.464 768.019,233.797 759,246.5C 751.421,255.946 741.921,262.279 730.5,265.5C 730.509,267.308 730.009,268.975 729,270.5C 723.252,278.309 717.252,285.976 711,293.5C 703.852,300.99 695.852,307.323 687,312.5C 686.5,312.167 686,311.833 685.5,311.5C 694.843,303.99 703.343,295.657 711,286.5C 716.589,276.323 721.922,265.99 727,255.5C 736.598,229.408 739.431,202.741 735.5,175.5C 734.66,184.872 733.494,194.206 732,203.5C 728.668,215.494 725.335,227.494 722,239.5C 717.687,250.832 712.02,261.499 705,271.5C 688.752,292.357 667.585,304.857 641.5,309C 638.182,313.815 634.515,318.315 630.5,322.5C 623.167,327.5 615.833,332.5 608.5,337.5C 608.167,337.167 607.833,336.833 607.5,336.5C 617.288,325.882 626.121,314.549 634,302.5C 651.017,259.287 649.017,216.954 628,175.5C 627.333,174.833 626.667,174.167 626,173.5C 626.398,181.661 627.898,189.661 630.5,197.5C 631.231,202.141 631.564,206.807 631.5,211.5C 631.642,223.518 631.309,235.518 630.5,247.5C 629.244,256.28 627.411,264.947 625,273.5C 612.286,300.309 593.953,322.309 570,339.5C 563.868,337.273 557.534,335.94 551,335.5C 541.633,337.124 532.467,339.457 523.5,342.5C 517.347,341.628 511.347,340.128 505.5,338C 498.482,337.669 491.482,337.669 484.5,338C 478.809,334.487 473.476,330.487 468.5,326C 432.395,285.1 419.228,237.6 429,183.5C 424.234,191.463 421.234,200.129 420,209.5C 411.4,253.292 419.733,293.292 445,329.5C 448.36,332.86 451.694,336.194 455,339.5C 455.688,340.332 455.521,340.998 454.5,341.5C 449.5,338.321 444.667,334.987 440,331.5C 434.54,324.085 429.707,316.252 425.5,308C 415.812,306.092 406.145,304.092 396.5,302C 375.544,295.707 360.044,282.873 350,263.5C 335.039,236.039 326.539,206.705 324.5,175.5C 323.5,175.5 322.5,175.5 321.5,175.5C 321.254,188.863 321.754,202.196 323,215.5C 326.494,254.262 342.994,286.095 372.5,311C 368.798,310.824 365.465,309.49 362.5,307C 348.676,295.5 337.343,281.833 328.5,266C 318.509,263.668 310.342,258.502 304,250.5C 291.511,235.34 281.511,218.673 274,200.5C 261.001,167.827 251.001,134.16 244,99.5C 240.056,66.2077 239.556,32.8743 242.5,-0.5 Z"/>
    </g>
    <g>
        <path style="opacity:1" fill="none"
              d="M 757.5,26.5 C 761.157,43.9569 767.323,60.6235 776,76.5C 784.958,87.7936 794.291,98.7936 804,109.5C 803.833,118.177 803.167,126.843 802,135.5C 801.781,136.938 801.281,138.271 800.5,139.5C 787.271,116.717 774.771,93.384 763,69.5C 758.869,55.4884 757.035,41.155 757.5,26.5 Z"/>
    </g>
    <g>
        <path style="opacity:1" fill="#888888"
              d="M 300.5,26.5 C 303.064,45.2709 300.064,63.2709 291.5,80.5C 280.163,99.8363 269.33,119.503 259,139.5C 256.519,129.65 255.185,119.65 255,109.5C 265.783,98.0593 275.783,86.0593 285,73.5C 293.059,58.8224 298.226,43.1557 300.5,26.5 Z"/>
    </g>
    <g>
        <path style="opacity:1" fill="none"
              d="M 189.5,-0.5 C 202.833,-0.5 216.167,-0.5 229.5,-0.5C 229.662,1.5273 229.495,3.5273 229,5.5C 225.526,15.7369 222.526,26.0702 220,36.5C 219.251,41.489 218.585,46.489 218,51.5C 217.902,53.6193 217.069,55.286 215.5,56.5C 213.177,53.8739 210.843,51.2072 208.5,48.5C 206.187,43.2074 203.354,38.2074 200,33.5C 195.064,22.6237 191.564,11.2904 189.5,-0.5 Z"/>
    </g>
    <g>
        <path style="opacity:1" fill="none"
              d="M 133.5,-0.5 C 146.167,-0.5 158.833,-0.5 171.5,-0.5C 170.603,14.2453 174.77,27.2453 184,38.5C 200.035,56.2454 214.368,75.2454 227,95.5C 227.991,97.4473 228.325,99.4473 228,101.5C 216.233,84.0672 202.066,68.9005 185.5,56C 162.672,42.1162 145.339,23.2829 133.5,-0.5 Z"/>
    </g>
    <g>
        <path style="opacity:1" fill="none"
              d="M 631.5,211.5 C 632.659,221.658 632.825,231.992 632,242.5C 631.802,244.382 631.302,246.048 630.5,247.5C 631.309,235.518 631.642,223.518 631.5,211.5 Z"/>
    </g>
    <g>
        <path style="opacity:1" fill="#fff"
              d="M 444.5,429.5 C 465.23,431.78 481.063,441.78 492,459.5C 492.667,460.833 492.667,462.167 492,463.5C 482.759,447.463 468.925,440.296 450.5,442C 447.652,444.181 445.652,447.014 444.5,450.5C 443.998,451.521 443.332,451.688 442.5,451C 440.316,448.984 438.316,446.817 436.5,444.5C 437.603,444.002 438.603,443.669 439.5,443.5C 437.559,441.684 436.892,439.684 437.5,437.5C 438.532,439.04 439.865,439.54 441.5,439C 439.968,436.966 438.635,434.799 437.5,432.5C 437.833,432.167 438.167,431.833 438.5,431.5C 440.349,432.593 442.016,433.926 443.5,435.5C 444.736,436.246 446.07,436.579 447.5,436.5C 447.297,433.767 446.297,431.434 444.5,429.5 Z"/>
    </g>
    <g>
        <path style="opacity:1" fill="#fff"
              d="M 612.5,428.5 C 614.924,428.192 617.257,428.526 619.5,429.5C 617.817,430.853 616.484,432.52 615.5,434.5C 618.961,434.539 622.127,433.206 625,430.5C 625.429,432.669 624.929,434.669 623.5,436.5C 624.868,437.594 626.035,437.26 627,435.5C 627.579,438.017 626.746,440.017 624.5,441.5C 625.833,441.833 627.167,442.167 628.5,442.5C 626.451,445.55 623.784,447.883 620.5,449.5C 618.741,446.237 616.408,443.403 613.5,441C 594.238,438.711 580.405,446.211 572,463.5C 571.792,459.887 572.792,456.554 575,453.5C 584.537,440.419 597.037,432.086 612.5,428.5 Z"/>
    </g>
    <g>
        <path style="opacity:1" fill="#fff"
              d="M 483.5,466.5 C 483.611,467.117 483.944,467.617 484.5,468C 475.506,468.5 466.506,468.666 457.5,468.5C 449.162,467.839 445.162,463.506 445.5,455.5C 446.845,456.347 447.845,457.513 448.5,459C 451.436,461.279 454.769,462.946 458.5,464C 466.847,464.804 475.18,465.638 483.5,466.5 Z"/>
    </g>
    <g>
        <path style="opacity:1" fill="#fff"
              d="M 603.5,467.5 C 595.826,467.666 588.159,467.5 580.5,467C 585.317,465.929 589.984,464.763 594.5,463.5C 601.106,463.079 607.44,461.579 613.5,459C 615.351,457.316 617.018,455.483 618.5,453.5C 619.696,457.37 618.696,460.703 615.5,463.5C 611.816,465.839 607.816,467.172 603.5,467.5 Z"/>
    </g>
    <g>
        <path style="opacity:1" fill="#fff"
              d="M 594.5,463.5 C 589.984,464.763 585.317,465.929 580.5,467C 588.159,467.5 595.826,467.666 603.5,467.5C 595.677,468.329 587.677,468.829 579.5,469C 577.382,469.26 575.716,470.26 574.5,472C 573.5,472.667 572.5,472.667 571.5,472C 577.712,465.359 585.379,462.526 594.5,463.5 Z"/>
    </g>
    <g>
        <path style="opacity:1" fill="#fff"
              d="M 483.5,466.5 C 486.82,467.158 489.487,468.825 491.5,471.5C 489.477,472.041 487.477,471.541 485.5,470C 475.991,469.83 466.658,469.33 457.5,468.5C 466.506,468.666 475.506,468.5 484.5,468C 483.944,467.617 483.611,467.117 483.5,466.5 Z"/>
    </g>
    <g>
        <path style="opacity:1" fill="#fff"
              d="M 485.5,569.5 C 485.106,568.033 484.773,566.533 484.5,565C 484.684,563.624 485.351,562.791 486.5,562.5C 488.243,564.436 490.243,564.77 492.5,563.5C 492.816,555.385 495.482,548.218 500.5,542C 502.744,541.094 505.077,540.594 507.5,540.5C 514.172,541.838 520.839,542.172 527.5,541.5C 530.909,537.851 532.076,538.851 531,544.5C 530.654,546.848 529.487,548.681 527.5,550C 520.913,551.883 514.246,553.55 507.5,555C 493.949,564.392 492.949,575.059 504.5,587C 506.218,587.346 507.885,587.846 509.5,588.5C 510.614,587.277 510.781,585.944 510,584.5C 508.009,582.543 506.009,580.543 504,578.5C 503.503,575.854 503.336,573.187 503.5,570.5C 505.527,570.338 507.527,570.505 509.5,571C 511.839,574.491 513.505,578.325 514.5,582.5C 517.409,585.577 520.742,588.077 524.5,590C 522.999,591.252 521.332,592.252 519.5,593C 514.845,593.499 510.179,593.666 505.5,593.5C 505.344,596.066 505.678,598.566 506.5,601C 506.389,602.722 505.889,602.888 505,601.5C 498.223,590.936 491.723,580.27 485.5,569.5 Z"/>
    </g>
    <g>
        <path style="opacity:1" fill="#fff"
              d="M 486.5,562.5 C 485.351,562.791 484.684,563.624 484.5,565C 484.773,566.533 485.106,568.033 485.5,569.5C 483.144,564.681 480.311,560.015 477,555.5C 471.979,544.624 467.479,533.458 463.5,522C 464.167,520 464.833,520 465.5,522C 471.547,536.167 478.547,549.667 486.5,562.5 Z"/>
    </g>
    <g>
        <path style="opacity:1" fill="none"
              d="M 416.5,548.5 C 416.095,569.878 416.762,591.212 418.5,612.5C 417.276,607.034 416.443,601.367 416,595.5C 415.172,579.661 415.339,563.995 416.5,548.5 Z"/>
    </g>
    <g>
        <path style="opacity:1" fill="#fff"
              d="M 567.5,594.5 C 568.797,592.307 568.797,589.973 567.5,587.5C 565.205,588.475 563.205,589.808 561.5,591.5C 555.207,593.26 549.207,592.76 543.5,590C 545.32,589.8 546.653,588.966 547.5,587.5C 549.771,585.734 551.937,583.734 554,581.5C 555.014,577.622 556.514,573.956 558.5,570.5C 560.371,569.233 562.204,569.233 564,570.5C 564.705,576.764 562.372,581.764 557,585.5C 556.517,586.448 556.351,587.448 556.5,588.5C 558.989,588.702 561.323,588.202 563.5,587C 566,583.833 568.5,580.667 571,577.5C 571.726,572.761 571.393,568.095 570,563.5C 562.332,555.273 552.832,551.107 541.5,551C 538.025,547.904 536.525,544.07 537,539.5C 539.319,542 542.153,543.334 545.5,543.5C 563.973,536.081 573.973,542.415 575.5,562.5C 576.723,563.614 578.056,563.781 579.5,563C 581.709,561.127 583.542,558.96 585,556.5C 591.328,543.945 597.662,531.278 604,518.5C 600.885,528.175 597.552,537.841 594,547.5C 589.736,553.251 586.402,559.585 584,566.5C 583,567.5 582,568.5 581,569.5C 576.789,579.545 572.456,589.545 568,599.5C 567.506,597.866 567.34,596.199 567.5,594.5 Z"/>
    </g>
    <g>
        <path style="opacity:1" fill="none"
              d="M 547.5,587.5 C 546.653,588.966 545.32,589.8 543.5,590C 549.207,592.76 555.207,593.26 561.5,591.5C 563.205,589.808 565.205,588.475 567.5,587.5C 568.797,589.973 568.797,592.307 567.5,594.5C 567.649,593.448 567.483,592.448 567,591.5C 559.992,594.369 552.825,594.869 545.5,593C 543.561,592.092 542.561,590.592 542.5,588.5C 544.216,588.371 545.883,588.038 547.5,587.5 Z"/>
    </g>
</svg>
